<svg width="14" height="15" viewBox="0 0 14 15" fill="none" xmlns="http://www.w3.org/2000/svg">
<g clip-path="url(#clip0_10_10609)">
<path fill-rule="evenodd" clip-rule="evenodd" d="M3.42305 1.25807C3.66713 1.01399 4.06285 1.01399 4.30693 1.25807L6.80693 3.75807C7.05101 4.00215 7.05101 4.39787 6.80693 4.64195C6.56285 4.88603 6.16713 4.88603 5.92305 4.64195L4.48999 3.20889V11.075C4.48999 11.4202 4.21017 11.7 3.86499 11.7C3.51981 11.7 3.23999 11.4202 3.23999 11.075V3.20889L1.80693 4.64195C1.56285 4.88603 1.16713 4.88603 0.923048 4.64195C0.678971 4.39787 0.678971 4.00215 0.923048 3.75807L3.42305 1.25807ZM9.48999 12.6911V4.20001C9.48999 3.85483 9.76981 3.57501 10.115 3.57501C10.4602 3.57501 10.74 3.85483 10.74 4.20001V12.6911L12.1731 11.2581C12.4171 11.014 12.8129 11.014 13.0569 11.2581C13.301 11.5021 13.301 11.8979 13.0569 12.1419L10.5569 14.6419C10.3129 14.886 9.91713 14.886 9.67305 14.6419L7.17305 12.1419C6.92897 11.8979 6.92897 11.5021 7.17305 11.2581C7.41713 11.014 7.81285 11.014 8.05693 11.2581L9.48999 12.6911Z" fill="#38383D"/>
</g>
<defs>
<clipPath id="clip0_10_10609">
<rect width="14" height="14" fill="white" transform="translate(-0.0100098 0.950012)"/>
</clipPath>
</defs>
</svg>
