<svg width="19" height="24" viewBox="0 0 19 24" fill="none" xmlns="http://www.w3.org/2000/svg">
<path d="M11.8188 13.7357H11.2165L11.003 13.5013C11.7502 12.512 12.2001 11.2276 12.2001 9.8304C12.2001 6.71486 9.98122 4.18945 7.24385 4.18945C4.50647 4.18945 2.2876 6.71486 2.2876 9.8304C2.2876 12.9459 4.50647 15.4713 7.24385 15.4713C8.47147 15.4713 9.59997 14.9593 10.4692 14.1088L10.6751 14.3518V15.0374L14.4876 19.3679L15.6237 18.0749L11.8188 13.7357ZM7.24385 13.7357C5.34522 13.7357 3.8126 11.9913 3.8126 9.8304C3.8126 7.66948 5.34522 5.92513 7.24385 5.92513C9.14247 5.92513 10.6751 7.66948 10.6751 9.8304C10.6751 11.9913 9.14247 13.7357 7.24385 13.7357Z" fill="#787878"/>
</svg>
